<svg width="120" height="120" viewBox="0 0 120 120" fill="none" xmlns="http://www.w3.org/2000/svg">
<g id="Layer_1" clip-path="url(#clip0_229_222)">
<path id="Vector" d="M92.9308 79.4364C94.0098 80.4605 95.1214 81.4528 96.1612 82.512C98.8473 85.2399 98.8213 88.9791 96.1091 91.6974C94.8606 92.9512 93.5958 94.1923 92.3147 95.4111C89.5471 98.0464 85.7071 98.056 82.9264 95.4207C81.8474 94.3997 80.8369 93.3086 80.0285 92.4918C76.4622 93.8286 73.1372 95.0602 69.8351 96.3459C69.584 96.4448 69.3656 96.9298 69.3526 97.2456C69.2972 98.5569 69.3526 99.8714 69.3135 101.186C69.2059 104.721 66.5394 107.318 62.9243 107.388C60.9716 107.426 59.019 107.426 57.0697 107.388C53.461 107.315 50.788 104.708 50.6837 101.179C50.6478 99.9065 50.6381 98.6303 50.6837 97.3605C50.7098 96.7001 50.4848 96.4161 49.8329 96.18C46.6448 95.0314 43.4828 93.8095 39.9948 92.4918C39.2744 93.2192 38.2801 94.2561 37.2468 95.2548C34.2771 98.123 30.4729 98.1134 27.5097 95.242C26.2677 94.0392 25.0225 92.8364 23.8066 91.6049C21.2053 88.9727 21.1727 85.2431 23.7544 82.5982C24.8204 81.507 25.9711 80.4956 27.0273 79.5002C26.0135 77.3084 25.0225 75.276 24.1293 73.2022C23.6729 72.1462 23.4415 70.9976 22.9982 69.932C22.8612 69.6066 22.3723 69.2365 22.0235 69.2141C20.524 69.1248 19.0147 69.2078 17.5119 69.1312C15.618 69.0323 14.1184 68.1421 12.9449 66.7032C12.3581 65.9822 12.2375 65.2229 12.9905 64.588C13.7892 63.918 14.5813 64.1253 15.2072 64.9038C16.0287 65.9216 17.0979 66.3395 18.4051 66.3204C20.0708 66.2949 21.7399 66.3523 23.4056 66.3044C24.6248 66.2693 25.2963 66.7639 25.5571 67.9316C26.3916 71.6549 27.8813 75.1261 29.9644 78.3421C30.5935 79.3152 30.5087 80.0809 29.6547 80.8721C28.4127 82.0207 27.2131 83.2107 26.0265 84.4135C24.3184 86.1492 24.3412 88.0507 26.0754 89.7863C27.2685 90.9795 28.4714 92.1696 29.6971 93.3309C31.3628 94.9102 33.335 94.9357 35.0138 93.3756C36.3112 92.1696 37.5695 90.9221 38.8115 89.6619C39.5515 88.9089 40.2849 88.826 41.1944 89.3843C44.5585 91.4517 48.1704 92.9449 52.0561 93.7871C53.1448 94.0232 53.6175 94.655 53.6012 95.7365C53.5719 97.4466 53.5719 99.1599 53.6012 100.87C53.6436 103.148 55.0127 104.482 57.3435 104.517C59.1331 104.542 60.9227 104.549 62.7124 104.517C64.9616 104.475 66.3373 103.129 66.3862 100.921C66.422 99.211 66.4253 97.4977 66.3862 95.7876C66.3601 94.6454 66.8654 94.0105 67.9998 93.7648C71.8464 92.9417 75.4256 91.4613 78.7474 89.4034C79.7025 88.81 80.4588 88.9121 81.2281 89.7033C82.3788 90.8838 83.5686 92.0292 84.7585 93.1714C86.6426 94.974 88.5659 94.9836 90.4273 93.1969C91.5877 92.0834 92.7385 90.9572 93.8761 89.8182C95.6918 88.0028 95.6723 86.1013 93.8272 84.2668C92.657 83.1055 91.49 81.9377 90.2871 80.8083C89.5341 80.1 89.358 79.3949 89.9415 78.4856C92.0832 75.1612 93.6121 71.5847 94.4825 67.7433C94.7139 66.7256 95.3561 66.2917 96.4057 66.3044C98.153 66.3268 99.9035 66.3331 101.651 66.3044C104.053 66.2598 105.396 64.9325 105.439 62.5684C105.468 60.8168 105.478 59.0653 105.429 57.3169C105.37 55.1697 104.004 53.8456 101.807 53.7914C100.018 53.7467 98.228 53.7563 96.4383 53.785C95.3235 53.8042 94.6943 53.3192 94.4564 52.2632C93.6023 48.4601 92.0767 44.9219 89.9546 41.6325C89.3776 40.736 89.4949 40.0245 90.261 39.3067C91.4932 38.1485 92.6961 36.9617 93.8826 35.7621C95.6658 33.9626 95.6658 32.0739 93.8957 30.3C92.7026 29.1035 91.4997 27.9167 90.2708 26.7554C88.6018 25.1824 86.6361 25.1697 84.954 26.7362C83.6892 27.9167 82.457 29.1323 81.2444 30.367C80.4848 31.1422 79.7351 31.3082 78.7669 30.7052C75.4126 28.6186 71.7909 27.1382 67.9052 26.3055C66.8132 26.0726 66.3601 25.4185 66.3797 24.3402C66.409 22.6301 66.4123 20.9168 66.3797 19.2067C66.3373 16.9797 65.0073 15.6334 62.7417 15.5664C60.913 15.5121 59.081 15.5153 57.2522 15.5664C54.9834 15.6302 53.6403 16.9734 53.5947 19.1844C53.5621 20.8945 53.5556 22.6077 53.5947 24.3178C53.6208 25.4632 53.0992 26.0885 51.9713 26.3342C48.1671 27.1542 44.6172 28.5994 41.3313 30.6382C40.2817 31.289 39.4895 31.1773 38.655 30.3C37.5206 29.1067 36.321 27.9677 35.1246 26.8319C33.3448 25.1442 31.3922 25.1442 29.6319 26.8255C28.4094 27.9933 27.2 29.1737 26.0102 30.3733C24.3412 32.0547 24.3282 33.9594 25.9907 35.66C27.1707 36.866 28.3768 38.0528 29.6156 39.2046C30.4533 39.983 30.6163 40.736 29.9741 41.7282C27.865 44.9761 26.3655 48.4857 25.5245 52.2504C25.2735 53.3766 24.5889 53.8233 23.435 53.7978C21.7268 53.7595 20.0187 53.8042 18.3106 53.785C17.049 53.7723 16.0124 54.1902 15.2235 55.1697C14.6042 55.9386 13.8251 56.197 13.0101 55.5398C12.1854 54.873 12.3549 54.0817 12.9808 53.3352C14.1739 51.9122 15.6831 51.0444 17.5771 50.9615C19.0375 50.8976 20.5044 50.8945 21.9681 50.9359C22.6233 50.9519 22.8449 50.6807 23.0601 50.1192C24.2467 47.0021 25.4854 43.9041 26.8578 40.4201C26.1634 39.7789 25.1105 38.8536 24.1163 37.8773C21.0488 34.8719 21.0521 31.1965 24.1032 28.1879C25.3354 26.9723 26.5513 25.744 27.8161 24.5603C30.424 22.1196 34.2054 22.0749 36.8393 24.4901C38.0193 25.5749 39.0788 26.7873 39.972 27.7157C43.6816 26.2098 47.0783 24.8283 50.6576 23.3735C50.6576 22.1898 50.6446 20.7605 50.6576 19.3343C50.7 15.3622 53.3013 12.7747 57.363 12.6981C59.1918 12.663 61.0238 12.6503 62.8525 12.7077C66.6437 12.8258 69.2287 15.4037 69.3037 19.1014C69.333 20.6073 69.3102 22.1164 69.3102 23.3766C72.896 24.8283 76.2992 26.2066 79.9861 27.6997C80.775 26.8798 81.7464 25.811 82.783 24.806C85.7005 21.9856 89.508 21.9952 92.4255 24.8124C93.7001 26.0407 94.9779 27.269 96.2167 28.5293C98.7528 31.1135 98.7821 34.84 96.2688 37.4562C95.1866 38.5824 94.013 39.6289 93.1329 40.4744C94.4857 43.9233 95.731 47.1393 97.0349 50.3329C97.149 50.6105 97.6673 50.8721 98.0128 50.8881C99.3917 50.9583 100.777 50.8881 102.159 50.9391C105.589 51.0699 108.213 53.6127 108.333 56.9723C108.408 59.0397 108.408 61.1135 108.33 63.1778C108.203 66.4671 105.582 69.01 102.224 69.1503C100.803 69.211 99.3754 69.128 97.9574 69.2141C97.6086 69.2365 97.1099 69.6034 96.9795 69.9288C96.3405 71.5177 95.8776 73.1703 95.2126 74.7464C94.5639 76.2842 93.7457 77.755 92.9145 79.4332L92.9308 79.4364Z" fill="#BA0000"/>
<path id="Vector_2" d="M109.976 92.7438C109.594 92.5779 109.187 92.4184 108.796 92.2237C106.295 90.9635 105.774 87.7507 107.863 85.9066C109.461 84.4996 111.152 83.1724 112.909 81.96C115.292 80.3137 118.503 81.6569 119.038 84.4677C119.403 86.382 119.696 88.309 119.96 90.2425C120.365 93.2319 117.525 95.5259 114.618 94.3996C113.193 93.8477 112.655 94.2114 111.866 95.3408C104.617 105.723 94.5405 112.397 82.5183 116.395C72.0282 119.882 61.2676 120.804 50.2918 119.314C37.7611 117.617 26.4822 113.099 16.8593 104.96C9.44972 98.6908 4.22425 91.0177 1.79895 81.6409C1.75005 81.4495 1.70116 81.2549 1.66204 81.0603C1.47297 80.1606 1.7142 79.4268 2.6791 79.1907C3.63748 78.9578 4.21773 79.4746 4.48177 80.3616C4.89251 81.7335 5.23153 83.1309 5.72376 84.4741C9.27043 94.1284 15.7835 101.479 24.4546 107.024C36.6919 114.851 50.2266 117.859 64.7295 116.931C76.3214 116.187 87.0233 112.812 96.6332 106.335C101.569 103.011 105.787 98.9588 109.21 94.1348C109.464 93.7743 109.705 93.4074 109.94 93.0341C109.976 92.9767 109.959 92.8874 109.976 92.7406V92.7438ZM117.066 90.6189C116.769 88.7972 116.505 86.9084 116.143 85.0388C115.97 84.155 115.221 83.8488 114.5 84.372C112.939 85.5078 111.416 86.701 109.937 87.9357C109.245 88.51 109.36 89.3108 110.188 89.6618C111.967 90.4179 113.777 91.1166 115.602 91.7579C116.437 92.0515 117.049 91.5346 117.062 90.6189H117.066Z" fill="#BA0000"/>
<path id="Vector_3" d="M9.88706 27.2913C10.3793 27.5083 10.7868 27.6678 11.1779 27.8592C13.688 29.0939 14.2389 32.3163 12.1591 34.1636C10.5684 35.577 8.87326 36.8978 7.11623 38.1134C4.68115 39.8011 1.46698 38.4292 0.942155 35.5387C0.599876 33.6595 0.306493 31.7739 0.0391888 29.882C-0.381326 26.8925 2.41559 24.6719 5.36571 25.6259C7.08689 26.181 7.07711 26.1746 8.14633 24.6624C15.3798 14.4305 25.2864 7.63162 37.2271 3.81901C57.4444 -2.6385 77.0097 -1.03689 95.4407 9.648C105.487 15.4738 112.933 23.6637 116.991 34.5464C117.519 35.9598 117.901 37.4306 118.308 38.8855C118.562 39.7948 118.383 40.6211 117.35 40.8923C116.326 41.1603 115.736 40.5764 115.492 39.6416C111.71 25.2175 102.159 15.4228 88.7744 9.37043C67.628 -0.19141 46.6153 0.644493 26.2611 11.9451C20.074 15.3813 14.9658 20.1064 10.878 25.8428C10.5586 26.2927 10.2554 26.7521 9.89032 27.2945L9.88706 27.2913ZM4.04875 28.2516C3.2012 28.3569 2.83936 28.8164 2.9502 29.5693C3.21098 31.3368 3.47177 33.1043 3.80427 34.8591C4.02267 36.0077 4.78547 36.2821 5.73407 35.5738C7.11949 34.5401 8.48535 33.4713 9.82187 32.3769C10.8454 31.541 10.7085 30.7593 9.44699 30.2521C7.87576 29.6172 6.28498 29.0397 4.69745 28.4431C4.47253 28.3601 4.23782 28.3059 4.04549 28.2516H4.04875Z" fill="#BA0000"/>
<path id="Vector_4" d="M59.8439 85.0962C45.5595 84.9335 34.2382 73.6073 34.4012 59.6427C34.5641 45.9109 46.2962 34.7985 60.4242 35.0026C74.3664 35.2036 85.7594 46.6479 85.5769 60.2712C85.3943 74.0636 73.7927 85.2526 59.8439 85.093V85.0962ZM37.3252 59.9904C37.3448 72.3471 47.5219 82.2567 60.1667 82.2312C72.5083 82.2025 82.6333 72.1876 82.6496 59.9872C82.6691 47.8985 72.3909 37.8485 60.0395 37.8709C47.5088 37.8932 37.3056 47.8315 37.3219 59.9936L37.3252 59.9904Z" fill="#BA0000"/>
<path id="Vector_5" d="M11.644 60.0989C11.644 59.665 11.4875 59.1417 11.6799 58.8163C11.9635 58.3345 12.4981 57.6645 12.9186 57.6677C13.4336 57.6709 14.2225 58.1974 14.3888 58.6664C14.6528 59.4129 14.555 60.3031 14.5061 61.1262C14.454 61.9844 13.9454 62.5428 13.0196 62.5141C12.1004 62.4853 11.6505 61.9334 11.6212 61.0496C11.6114 60.7338 11.6212 60.4179 11.6212 60.1021C11.6277 60.1021 11.6375 60.1021 11.644 60.1021V60.0989Z" fill="#BA0000"/>
</g>
<defs>
<clipPath id="clip0_229_222">
<rect width="120" height="120" fill="white"/>
</clipPath>
</defs>
</svg>
