<svg width="37" height="30" viewBox="0 0 37 30" fill="none" xmlns="http://www.w3.org/2000/svg">
<g id="Layer_8" clip-path="url(#clip0_278_19)">
<path id="Vector" d="M2.27541 13.0593C2.27541 13.0593 18.6294 6.47521 24.3089 4.15357C26.4919 3.22854 33.8549 0.253932 33.8549 0.253932C33.8549 0.253932 37.2589 -1.05199 36.9814 2.10399C36.8889 3.40992 36.1304 7.94438 35.3719 12.8597C34.2434 19.8065 33.0039 27.4244 33.0039 27.4244C33.0039 27.4244 32.8189 29.5647 31.2094 29.9275C29.5999 30.2902 26.9544 28.6215 26.4734 28.2588C26.1034 27.9867 19.3879 23.815 16.9274 21.7654C16.2614 21.2031 15.5029 20.0967 17.0199 18.7908C20.4239 15.7255 24.4939 11.9347 26.9544 9.52237C28.0829 8.41596 29.2299 5.80411 24.4939 8.9601C17.7784 13.5127 11.1554 17.7751 11.1554 17.7751C11.1554 17.7751 9.6384 18.7001 6.80791 17.8658C3.97741 17.0314 0.665905 15.925 0.665905 15.925C0.665905 15.925 -1.60959 14.5284 2.27541 13.0411V13.0593Z" fill="#242424"/>
</g>
<defs>
<clipPath id="clip0_278_19">
<rect width="37" height="30" fill="white"/>
</clipPath>
</defs>
</svg>
