<svg width="35" height="28" viewBox="0 0 35 28" fill="none" xmlns="http://www.w3.org/2000/svg">
<g id="Layer_8" clip-path="url(#clip0_480_501)">
<path id="Vector" d="M2.15261 12.1885C2.15261 12.1885 17.6226 6.04344 22.9951 3.87657C25.0601 3.01321 32.0251 0.236912 32.0251 0.236912C32.0251 0.236912 35.2451 -0.981952 34.9826 1.96363C34.8951 3.1825 34.1776 7.41466 33.4601 12.0023C32.3926 18.486 31.2201 25.596 31.2201 25.596C31.2201 25.596 31.0451 27.5936 29.5226 27.9322C28.0001 28.2708 25.4976 26.7133 25.0426 26.3748C24.6926 26.1208 18.3401 22.2272 16.0126 20.3143C15.3826 19.7895 14.6651 18.7569 16.1001 17.538C19.3201 14.6771 23.1701 11.139 25.4976 8.88746C26.5651 7.85481 27.6501 5.41708 23.1701 8.36267C16.8176 12.6118 10.5526 16.59 10.5526 16.59C10.5526 16.59 9.11761 17.4534 6.44011 16.6746C3.76261 15.8959 0.630108 14.8633 0.630108 14.8633C0.630108 14.8633 -1.52239 13.5598 2.15261 12.1716V12.1885Z" fill="white"/>
</g>
<defs>
<clipPath id="clip0_480_501">
<rect width="35" height="28" fill="white"/>
</clipPath>
</defs>
</svg>
