<svg width="38" height="25" viewBox="0 0 38 25" fill="none" xmlns="http://www.w3.org/2000/svg">
<g id="Layer_8" clip-path="url(#clip0_480_503)">
<path id="Vector" d="M37.9999 23.5486C37.9734 23.6719 37.9469 23.7952 37.9204 23.9184C37.7769 24.5673 37.3839 24.9733 36.8083 24.9787C34.8166 24.995 32.8249 25.0204 30.8348 24.9787C29.5902 24.9533 28.5998 24.232 27.7684 23.197C26.9683 22.1983 26.1791 21.1851 25.3728 20.1937C25.1622 19.9345 24.9174 19.7043 24.6663 19.4995C23.902 18.8742 23.1424 19.0754 22.79 20.0813C22.5373 20.8009 22.4156 21.5857 22.269 22.3506C22.2004 22.7113 22.2207 23.0955 22.1848 23.4653C22.0975 24.3661 21.7325 24.8373 20.9605 24.9153C17.5557 25.256 14.3677 24.5383 11.5119 22.2382C9.72765 20.8027 8.31303 18.9503 7.04657 16.9312C4.44814 12.795 2.4034 8.29272 0.58638 3.64181C0.39298 3.147 0.188662 2.65037 0.0498505 2.1338C-0.113916 1.51936 0.129394 1.08798 0.670603 0.959293C0.910793 0.901293 1.1619 0.879543 1.40677 0.879543C3.0148 0.872293 4.62283 0.904918 6.23085 0.861418C7.17758 0.836042 7.75934 1.31455 8.12742 2.29693C8.57037 3.4805 9.03048 4.65863 9.53269 5.80958C10.3141 7.60578 11.2156 9.32586 12.2949 10.9046C12.5741 11.3124 12.9312 11.6749 13.304 11.9649C13.7969 12.3509 14.2616 12.1951 14.4847 11.5552C14.6812 10.9916 14.8278 10.3807 14.8793 9.77536C15.0493 7.78341 15.0618 5.78602 14.7795 3.80131C14.6219 2.69749 14.0885 1.98699 13.1371 1.72417C13.0654 1.70424 12.9967 1.6698 12.925 1.64986C12.5975 1.56467 12.5975 1.35986 12.7721 1.09342C13.2057 0.426414 13.7641 0.0167863 14.5003 0.0149738C16.5653 0.00772373 18.6319 -0.0104014 20.6969 0.0185988C21.614 0.0312864 22.1177 0.817917 22.1209 2.12655C22.1271 4.64232 22.1193 7.15809 22.1333 9.67386C22.1365 10.0853 22.1973 10.504 22.2799 10.9046C22.333 11.1619 22.4484 11.4175 22.5825 11.635C22.9163 12.1733 23.4232 12.2748 23.824 11.8054C24.398 11.1366 24.9517 10.4297 25.4321 9.67023C26.8482 7.43722 27.8917 4.96495 28.7854 2.40205C28.8633 2.17549 28.9538 1.95618 29.0427 1.73505C29.2611 1.18404 29.6385 0.908543 30.1516 0.87773C30.3248 0.866855 30.4979 0.86323 30.671 0.86323C32.5021 0.86323 34.3331 0.861418 36.1626 0.87048C36.4699 0.87048 36.7803 0.903105 37.0844 0.957481C37.4962 1.03179 37.8284 1.25836 37.9984 1.72961V2.42018C37.4525 4.35594 36.4824 6.01077 35.4561 7.62753C34.4938 9.14098 33.519 10.6436 32.5598 12.1606C32.3414 12.5068 32.1465 12.8748 31.9718 13.2536C31.6739 13.8988 31.7332 14.5368 32.1137 15.1114C32.3383 15.4522 32.5925 15.7693 32.8561 16.0702C33.7015 17.0381 34.5874 17.9625 35.4 18.9648C36.4449 20.2553 37.5336 21.5259 37.9984 23.2949V23.5541L37.9999 23.5486Z" fill="white"/>
</g>
<defs>
<clipPath id="clip0_480_503">
<rect width="38" height="25" fill="white"/>
</clipPath>
</defs>
</svg>
