<svg width="41" height="28" viewBox="0 0 41 28" fill="none" xmlns="http://www.w3.org/2000/svg">
<g id="Layer_8" clip-path="url(#clip0_278_21)">
<path id="Vector" d="M41 26.3742C40.9714 26.5122 40.9428 26.6503 40.9142 26.7883C40.7593 27.515 40.3353 27.9698 39.7143 27.9759C37.5654 27.9941 35.4164 28.0225 33.2691 27.9759C31.9263 27.9474 30.8577 27.1395 29.9607 25.9803C29.0975 24.8618 28.2459 23.727 27.3759 22.6166C27.1488 22.3263 26.8846 22.0685 26.6136 21.8391C25.789 21.1388 24.9695 21.3641 24.5892 22.4908C24.3166 23.2967 24.1853 24.1757 24.0271 25.0323C23.9531 25.4363 23.975 25.8667 23.9363 26.2808C23.842 27.2897 23.4483 27.8175 22.6153 27.9048C18.9417 28.2864 15.502 27.4826 12.4208 24.9065C10.4957 23.2987 8.96936 21.224 7.60291 18.9626C4.79935 14.3301 2.59319 9.28753 0.632711 4.07851C0.424043 3.52432 0.203595 2.96809 0.0538246 2.38954C-0.12287 1.70136 0.139648 1.21822 0.723583 1.07409C0.982736 1.00913 1.25367 0.984769 1.51787 0.984769C3.25285 0.976649 4.98783 1.01319 6.7228 0.964469C7.74427 0.936049 8.37196 1.47197 8.7691 2.57224C9.24702 3.89784 9.74345 5.21735 10.2853 6.50641C11.1284 8.51816 12.1011 10.4446 13.2656 12.2128C13.5668 12.6695 13.9522 13.0755 14.3544 13.4003C14.8861 13.8327 15.3876 13.6582 15.6282 12.9416C15.8403 12.3102 15.9985 11.6261 16.054 10.9481C16.2374 8.7171 16.2509 6.48002 15.9463 4.25715C15.7763 3.02087 15.2008 2.22511 14.1743 1.93076C14.0969 1.90843 14.0228 1.86986 13.9454 1.84753C13.592 1.75212 13.592 1.52272 13.7805 1.22431C14.2483 0.477265 14.8508 0.0184819 15.6451 0.0164519C17.8731 0.00833182 20.1028 -0.0119683 22.3309 0.0205119C23.3204 0.034722 23.8639 0.915749 23.8673 2.38142C23.874 5.19908 23.8656 8.01674 23.8807 10.8344C23.8841 11.2952 23.9497 11.7642 24.0389 12.2128C24.0961 12.501 24.2207 12.7873 24.3654 13.0309C24.7255 13.6338 25.2724 13.7475 25.7049 13.2217C26.3242 12.4726 26.9216 11.6809 27.4399 10.8303C28.9679 8.32936 30.0937 5.56042 31.0579 2.68998C31.1421 2.43623 31.2397 2.1906 31.3356 1.94294C31.5712 1.32581 31.9784 1.01725 32.5321 0.982739C32.7189 0.970559 32.9057 0.966499 33.0924 0.966499C35.0681 0.966499 37.0437 0.964469 39.0176 0.974619C39.3491 0.974619 39.684 1.01116 40.0122 1.07206C40.4564 1.15529 40.8149 1.40904 40.9983 1.93685V2.71028C40.4093 4.87834 39.3626 6.73174 38.2553 8.54252C37.217 10.2376 36.1653 11.9205 35.1303 13.6196C34.8947 14.0073 34.6844 14.4194 34.4959 14.8437C34.1745 15.5664 34.2384 16.2809 34.649 16.9244C34.8914 17.3061 35.1657 17.6613 35.4501 17.9983C36.3621 19.0824 37.318 20.1177 38.1947 21.2403C39.3222 22.6856 40.4968 24.1087 40.9983 26.09V26.3803L41 26.3742Z" fill="#242424"/>
</g>
<defs>
<clipPath id="clip0_278_21">
<rect width="41" height="28" fill="white"/>
</clipPath>
</defs>
</svg>
