<svg width="30" height="30" viewBox="0 0 30 30" fill="none" xmlns="http://www.w3.org/2000/svg">
<g id="Layer_2" clip-path="url(#clip0_480_498)">
<path id="Vector" d="M19.1541 21.8461C17.9519 21.8508 16.857 21.5031 15.8123 21.0031C12.9541 19.6352 10.6233 17.6531 8.90383 14.9812C8.27999 14.0117 7.83406 12.9641 7.7259 11.8031C7.60208 10.4766 8.17654 9.10625 9.50495 8.36875C10.0277 8.07891 10.5677 8.15547 11.0473 8.51719C11.8177 9.09922 12.1829 9.93438 12.4643 10.8203C12.7315 11.6633 12.5795 12.3961 11.9831 13.0703C11.3067 13.8352 11.3287 13.8625 11.9063 14.7266C13.045 16.4305 14.556 17.6813 16.4518 18.4656C16.9628 18.6773 17.1525 18.6258 17.4668 18.1719C17.6164 17.9555 17.7646 17.7359 17.8947 17.5078C18.2732 16.8461 18.8155 16.5969 19.5679 16.7852C20.3649 16.9844 21.1087 17.2844 21.7372 17.8266C22.5264 18.507 22.6612 19.2633 22.1589 20.1727C21.5006 21.3641 20.4598 21.8664 19.1533 21.8477L19.1541 21.8461Z" fill="white"/>
<path id="Vector_2" d="M14.6077 0C14.8813 0 15.1556 0 15.4291 0C15.5419 0.0242187 15.6532 0.065625 15.7669 0.0695312C17.0819 0.110937 18.3594 0.359375 19.6087 0.760156C26.8306 3.07812 31.2257 10.4813 29.6983 17.9289C28.7288 22.657 26.003 26.1367 21.7161 28.3695C20.1102 29.2063 18.3908 29.6992 16.5827 29.8688C16.1971 29.9047 15.8139 29.9555 15.4291 30H14.6665C14.2715 29.9562 13.8773 29.907 13.4823 29.8703C11.6147 29.693 9.85606 29.1531 8.18203 28.3148C8.04331 28.2453 7.83876 28.2344 7.6875 28.2758C6.12947 28.7078 4.57692 29.1625 3.01967 29.5969C2.46872 29.7508 1.90679 29.8664 1.34956 30H1.23201C1.16069 29.9727 1.09094 29.9398 1.01805 29.9203C0.523525 29.7891 0.212388 29.4773 0.0807231 28.9836C0.0611301 28.9102 0.0274302 28.8414 0 28.7703C0 28.7117 0 28.6531 0 28.5945C0.064265 28.4234 0.119125 28.2477 0.194362 28.0812C0.880901 26.5633 1.5643 25.043 2.2673 23.5328C2.39975 23.2484 2.40132 23.0414 2.22968 22.7625C1.05724 20.8602 0.346404 18.7961 0.132449 16.5672C0.089344 16.1219 0.0438883 15.6781 0 15.2344C0 15.0195 0 14.8047 0 14.5898C0.0242953 14.4773 0.0564278 14.3656 0.0705348 14.2516C0.158311 13.5188 0.184174 12.7727 0.336216 12.0539C1.15442 8.175 3.18582 5.06875 6.41866 2.76797C8.52452 1.26953 10.8741 0.386719 13.4541 0.13125C13.8389 0.0929687 14.2229 0.04375 14.6077 0ZM3.60824 26.7148C3.78301 26.6813 3.87706 26.6687 3.96719 26.6445C5.1702 26.3164 6.37477 25.9953 7.57386 25.6523C8.05507 25.5148 8.48298 25.5641 8.91951 25.8133C10.7879 26.8828 12.8138 27.4023 14.9581 27.4234C16.2504 27.4359 17.524 27.2414 18.7599 26.8453C24.8659 24.8914 28.4866 18.7258 27.1817 12.4508C25.8494 6.04141 19.6768 1.65469 12.9847 2.74531C10.8725 3.08984 8.95086 3.91484 7.30035 5.27812C3.71405 8.24219 2.17247 12.0633 2.69991 16.6805C2.92798 18.6797 3.6874 20.5016 4.85514 22.1453C5.20703 22.6406 5.24308 23.143 4.98367 23.6867C4.72348 24.232 4.48052 24.7859 4.23052 25.3367C4.0338 25.7695 3.83944 26.2039 3.60824 26.7156V26.7148Z" fill="white"/>
</g>
<defs>
<clipPath id="clip0_480_498">
<rect width="30" height="30" fill="white"/>
</clipPath>
</defs>
</svg>
