<svg width="33" height="33" viewBox="0 0 33 33" fill="none" xmlns="http://www.w3.org/2000/svg">
<g id="Layer_2" clip-path="url(#clip0_278_16)">
<path id="Vector" d="M21.0696 24.0307C19.7471 24.0359 18.5428 23.6534 17.3936 23.1034C14.2496 21.5987 11.6857 19.4184 9.79427 16.4794C9.10804 15.4129 8.61751 14.2605 8.49854 12.9834C8.36233 11.5242 8.99424 10.0169 10.4555 9.20563C11.0305 8.8868 11.6245 8.97102 12.1521 9.36891C12.9995 10.0091 13.4013 10.9278 13.7107 11.9023C14.0047 12.8296 13.8375 13.6357 13.1814 14.3773C12.4374 15.2187 12.4616 15.2488 13.0969 16.1992C14.3496 18.0735 16.0117 19.4494 18.0971 20.3122C18.6592 20.5451 18.8678 20.4884 19.2135 19.9891C19.3781 19.751 19.5411 19.5095 19.6842 19.2586C20.1006 18.5307 20.6971 18.2566 21.5247 18.4637C22.4015 18.6828 23.2196 19.0128 23.911 19.6092C24.7791 20.3577 24.9274 21.1896 24.3748 22.1899C23.6507 23.5005 22.5058 24.0531 21.0687 24.0324L21.0696 24.0307Z" fill="#242424"/>
<path id="Vector_2" d="M16.0685 0C16.3694 0 16.6711 0 16.972 0C17.0961 0.0266406 17.2186 0.0721875 17.3436 0.0764844C18.7901 0.122031 20.1954 0.395312 21.5695 0.836172C29.5137 3.38594 34.3483 11.5294 32.6681 19.7218C31.6017 24.9227 28.6033 28.7504 23.8877 31.2065C22.1213 32.1269 20.2298 32.6691 18.241 32.8556C17.8168 32.8952 17.3953 32.951 16.972 33H16.1332C15.6987 32.9519 15.2651 32.8977 14.8306 32.8573C12.7762 32.6623 10.8417 32.0684 9.00024 31.1463C8.84764 31.0698 8.62264 31.0578 8.45625 31.1034C6.74242 31.5786 5.03461 32.0788 3.32164 32.5566C2.71559 32.7259 2.09747 32.853 1.48452 33H1.35521C1.27676 32.9699 1.20003 32.9338 1.11986 32.9123C0.575877 32.768 0.233627 32.4251 0.0887954 31.882C0.0672431 31.8012 0.0301732 31.7255 0 31.6473C0 31.5829 0 31.5184 0 31.454C0.0706915 31.2658 0.131038 31.0724 0.213799 30.8894C0.968991 29.2196 1.72073 27.5473 2.49403 25.8861C2.63972 25.5733 2.64145 25.3455 2.45265 25.0387C1.16296 22.9462 0.381044 20.6757 0.145693 18.2239C0.0982784 17.7341 0.0482771 17.2459 0 16.7578C0 16.5215 0 16.2852 0 16.0488C0.0267248 15.9251 0.0620706 15.8022 0.0775882 15.6767C0.174142 14.8706 0.202591 14.0499 0.369837 13.2593C1.26986 8.9925 3.5044 5.57562 7.06053 3.04477C9.37697 1.39648 11.9615 0.425391 14.7995 0.144375C15.2228 0.102266 15.6452 0.048125 16.0685 0ZM3.96907 29.3863C4.16132 29.3494 4.26477 29.3356 4.36391 29.309C5.68722 28.948 7.01225 28.5948 8.33125 28.2176C8.86058 28.0663 9.33128 28.1205 9.81146 28.3946C11.8667 29.5711 14.0952 30.1426 16.4539 30.1658C17.8755 30.1795 19.2764 29.9655 20.6359 29.5298C27.3524 27.3805 31.3353 20.5984 29.8999 13.6959C28.4344 6.64555 21.6445 1.82016 14.2831 3.01984C11.9598 3.39883 9.84595 4.30633 8.03038 5.80594C4.08545 9.06641 2.38972 13.2696 2.96991 18.3485C3.22077 20.5477 4.05614 22.5517 5.34066 24.3598C5.72774 24.9047 5.76739 25.4573 5.48204 26.0554C5.19583 26.6552 4.92858 27.2645 4.65357 27.8704C4.43718 28.3465 4.22339 28.8243 3.96907 29.3872V29.3863Z" fill="#242424"/>
</g>
<defs>
<clipPath id="clip0_278_16">
<rect width="33" height="33" fill="white"/>
</clipPath>
</defs>
</svg>
